<?xml version="1.0" encoding="UTF-8" standalone="no"?>
<!-- Created with Inkscape (http://www.inkscape.org/) -->

<svg
   width="53.102703mm"
   height="30.654461mm"
   viewBox="0 0 53.102703 30.654461"
   version="1.1"
   id="svg1"
   sodipodi:docname="logo.svg"
   inkscape:version="1.3.2 (091e20e, 2023-11-25, custom)"
   xmlns:inkscape="http://www.inkscape.org/namespaces/inkscape"
   xmlns:sodipodi="http://sodipodi.sourceforge.net/DTD/sodipodi-0.dtd"
   xmlns="http://www.w3.org/2000/svg"
   xmlns:svg="http://www.w3.org/2000/svg">
  <sodipodi:namedview
     id="namedview1"
     pagecolor="#505050"
     bordercolor="#ffffff"
     borderopacity="1"
     inkscape:showpageshadow="0"
     inkscape:pageopacity="0"
     inkscape:pagecheckerboard="1"
     inkscape:deskcolor="#505050"
     inkscape:document-units="mm"
     inkscape:zoom="1.5364762"
     inkscape:cx="34.169094"
     inkscape:cy="207.2925"
     inkscape:window-width="1920"
     inkscape:window-height="1009"
     inkscape:window-x="-8"
     inkscape:window-y="-8"
     inkscape:window-maximized="1"
     inkscape:current-layer="layer1"
     inkscape:export-bgcolor="#5c5c5c00" />
  <defs
     id="defs1" />
  <g
     inkscape:label="Layer 1"
     inkscape:groupmode="layer"
     id="layer1"
     transform="translate(-106.77901,-50.408808)">
    <path
       id="rect5"
       style="fill:#000000;fill-opacity:1;stroke-width:0.264583"
       d="m 121.93054,50.408809 c 1.90169,0 3.60357,0.172256 5.10563,0.516765 1.51584,0.344509 2.88699,0.737251 4.11345,1.178222 l -1.46761,7.152019 c -1.46072,-0.813042 -2.76986,-1.384929 -3.92741,-1.715658 -1.15755,-0.330729 -2.322,-0.496094 -3.49333,-0.496094 -0.93706,0 -1.68121,0.199816 -2.23242,0.599447 -0.53744,0.399631 -0.80615,0.923286 -0.80615,1.570963 0,0.606337 0.22048,1.129992 0.66146,1.570964 0.44097,0.440972 1.39182,1.06109 2.85253,1.860352 2.34267,1.240233 3.97565,2.521811 4.89893,3.844726 0.93707,1.309135 1.4056,2.976565 1.4056,5.002279 0,1.915471 -0.53744,3.624242 -1.61231,5.126302 -1.06108,1.50206 -2.53559,2.618273 -4.4235,3.348633 -1.87413,0.730359 -4.09966,1.09554 -6.67659,1.09554 -1.87413,0 -3.63114,-0.206706 -5.271,-0.620117 -1.62608,-0.427192 -3.05236,-0.971518 -4.27881,-1.632975 l 1.5503,-7.317383 c 2.63205,1.943032 5.29855,2.914551 7.99951,2.914551 2.14973,0 3.22461,-0.764813 3.22461,-2.294434 0,-0.689018 -0.26872,-1.260905 -0.80616,-1.715658 -0.52365,-0.468532 -1.45383,-1.005968 -2.79052,-1.612304 -2.23242,-1.047308 -3.83095,-2.218643 -4.79558,-3.513998 -0.95084,-1.309135 -1.42627,-2.976564 -1.42627,-5.002278 0,-1.915471 0.52366,-3.644913 1.57097,-5.188314 1.04731,-1.557182 2.48047,-2.721626 4.29948,-3.493327 1.81901,-0.785481 3.92741,-1.178223 6.32519,-1.178223 z m 15.44092,0.496094 h 12.19564 c 3.48643,0 6.07715,0.564997 7.77213,1.694987 1.69499,1.12999 2.54248,2.880102 2.54248,5.250326 0,1.860349 -0.66146,3.403755 -1.98437,4.630208 -1.30914,1.226453 -3.11437,2.053277 -5.41569,2.480469 l -0.99218,0.545703 c 1.86035,0.234266 4.30636,0.453376 5.35367,1.583366 1.04731,1.11621 1.57096,2.542482 1.57096,4.278808 0,1.87413 -0.51676,3.500219 -1.55029,4.878256 -1.03353,1.364256 -2.55626,2.425348 -4.5682,3.183268 -1.99815,0.74414 -4.43728,1.116211 -7.31738,1.116211 h -13.86995 z m 7.66878,5.973796 -1.19889,5.601725 h 2.79053 c 1.10243,0 2.00504,-0.282498 2.70784,-0.847493 0.71658,-0.564996 1.07487,-1.247126 1.07487,-2.046387 0,-0.992187 -0.2825,-1.688097 -0.84749,-2.087728 -0.55122,-0.413411 -1.51585,-0.620117 -2.89388,-0.620117 z m -2.41845,11.596191 -1.36426,6.056478 h 3.14192 c 1.41938,0 2.52871,-0.296279 3.32797,-0.888835 0.79926,-0.606336 1.19889,-1.42627 1.19889,-2.459798 0,-0.813042 -0.26183,-1.467611 -0.78548,-1.963704 -0.52366,-0.496093 -1.24713,-0.744141 -2.17041,-0.744141 z"
       sodipodi:nodetypes="scccsscssccsccscccsscccsccscsssccccsccsccccscscscccscsssc"
       inkscape:export-filename="logo.svg"
       inkscape:export-xdpi="96"
       inkscape:export-ydpi="96" />
  </g>
</svg>
